Coordinates
version=1
nRows=13
nColumns=36
inDegrees=yes

Units are S.I. units (second, meters, Newtons, ...)
If the header above contains a line with 'inDegrees', this indicates whether rotational values are in degrees (yes) or radians (no).

endheader
time	pelvis_tilt	pelvis_list	pelvis_rotation	pelvis_tx	pelvis_ty	pelvis_tz	hip_flexion_r	hip_adduction_r	hip_rotation_r	knee_angle_r	knee_angle_r_beta	ankle_angle_r	subtalar_angle_r	mtp_angle_r	hip_flexion_l	hip_adduction_l	hip_rotation_l	knee_angle_l	knee_angle_l_beta	ankle_angle_l	subtalar_angle_l	mtp_angle_l	lumbar_extension	lumbar_bending	lumbar_rotation	arm_flex_r	arm_add_r	arm_rot_r	elbow_flex_r	pro_sup_r	arm_flex_l	arm_add_l	arm_rot_l	elbow_flex_l	pro_sup_l
      3.66666670	      1.37622838	      1.19490018	      6.35080537	      0.78285350	      0.90244072	     -0.04584387	     13.29139477	      2.13682878	     -1.17666859	     23.05821599	      0.40244179	     18.40287174	    -12.88045134	     -7.49999987	     19.00505996	     -2.91054740	     -3.28283643	     39.82994634	      0.69516370	      6.56697105	    -26.02329731	     -7.49999987	    -10.93744906	      0.12384242	      5.35263729	     11.48223215	     -4.69285258	      5.05514385	     40.68260176	     93.67915764	     11.61773160	     -2.80416976	     12.85855732	     39.20511473	     88.60410810
      3.68333330	      0.52695359	      1.52977602	      5.72200717	      0.78264446	      0.90657215	     -0.04585389	     13.61982062	      1.67031429	     -1.07939279	     21.68830655	      0.37853236	     17.52867578	    -11.74436357	     -7.49999987	     19.30217416	     -2.39629652	     -4.34191135	     41.03503479	      0.71619647	      6.04899441	    -26.52931931	     -7.49999987	     -9.74396045	     -0.26069211	      5.71466156	     11.58346008	     -5.11506868	      5.36835278	     41.83263833	     93.40340859	     10.93802306	     -2.82466090	     12.96792019	     39.66231204	     88.72607809
      3.70000000	     -0.21329788	      1.82083383	      5.02539392	      0.77829079	      0.90601537	     -0.04826315	     13.80622382	      1.15374076	     -0.99744588	     20.21880094	      0.35288465	     16.72681496	    -10.60104036	     -7.49999987	     19.97546120	     -1.66223291	     -5.19276986	     42.97443996	      0.75004547	      4.88984699	    -27.22483270	     -7.49999987	     -8.72679759	     -0.43928197	      6.03218821	     11.42407617	     -5.58805030	      5.57790487	     43.06871250	     93.01706175	     10.15876791	     -2.84571049	     13.22035530	     39.90141296	     88.85074970
      3.71666670	     -0.53360616	      2.12024536	      4.72088006	      0.77757453	      0.91056327	     -0.04827114	     12.94318876	      0.64269345	     -1.14360918	     17.71155917	      0.30912502	     15.85229339	     -9.07771592	     -7.49999987	     20.08156317	     -0.92069854	     -5.78865864	     45.08530286	      0.78688698	      3.29326916	    -27.50090172	     -7.49999987	     -8.01094074	     -0.52890592	      6.30705936	     11.22136548	     -6.17729921	      5.51436838	     43.97799766	     92.22863344	     10.00347226	     -2.72073329	     14.14154838	     39.26438103	     89.03389898
      3.73333330	     -0.86019726	      2.21470417	      4.41941109	      0.77228647	      0.90994730	     -0.04506493	     12.30888607	      0.46346261	     -1.11555973	     15.49070930	      0.27036388	     15.05439098	     -8.01553031	     -7.49999987	     19.92933318	     -0.26073022	     -6.16317558	     47.03830426	      0.82097328	      3.57343858	    -27.12368236	     -7.49999987	     -7.21759427	     -0.57110715	      6.35957369	     11.06536169	     -6.40620862	      5.47115630	     44.05918267	     91.89967577	      9.70494943	     -2.72661598	     14.45243736	     38.99607632	     88.93460049
      3.75000000	     -0.83008967	      2.02663336	      4.45400539	      0.77176996	      0.91058798	     -0.04546356	     11.38508330	      0.56957333	     -1.47472947	     13.49237903	      0.23548644	     14.95538419	     -6.21903481	     -7.49999987	     18.50593797	      0.25068737	     -6.59897436	     48.68350255	      0.84968741	      7.91356148	    -24.38249896	     -7.49999987	     -6.60625135	     -0.16133635	      6.44220566	     10.72448236	     -6.97007167	      5.41534745	     44.09284963	     91.21193948	      9.74695155	     -2.48084861	     15.48469315	     37.71585090	     88.92946834
      3.76666670	     -0.69907282	      1.58812596	      4.57427133	      0.77147657	      0.90996345	     -0.04589240	     10.30005860	      1.10531965	     -1.66061662	     11.51270580	      0.20093462	     14.40600549	     -5.19737112	     -7.49999987	     16.79352881	      0.64700577	     -6.64524961	     49.66147028	      0.86675617	     11.92687484	    -21.72219372	     -7.49999987	     -6.24007092	      0.53025608	      6.27844094	     10.38751896	     -7.34609637	      5.36229933	     43.99159468	     90.79159611	      9.64666500	     -2.21863938	     15.97334068	     36.74452045	     88.85014837
      3.78333330	     -0.32735027	      1.20079724	      4.55199950	      0.77083683	      0.91063742	     -0.04629206	      9.24801527	      1.59465802	     -1.72773245	     10.17870682	      0.17765195	     14.00538462	     -4.33533164	     -7.49999987	     15.12026093	      0.76082303	     -6.97539959	     51.02846964	      0.89061481	     14.60404728	    -18.72616769	     -7.49999987	     -6.05892041	      1.12360578	      6.27042516	     10.12498381	     -7.74832294	      5.29053381	     43.56837403	     90.35457249	      9.64305096	     -1.82132599	     16.23590023	     35.60836378	     88.72804915
      3.80000000	     -0.16108771	      0.73293009	      4.55052635	      0.76528025	      0.91211472	     -0.04417023	      8.69773162	      2.23915327	     -1.81481844	      9.07934883	      0.15846453	     13.17155859	     -4.01728117	     -7.49999987	     13.24020171	      0.97818127	     -6.95930468	     51.32093730	      0.89571933	     15.52112277	    -16.31679152	     -7.49999987	     -5.96338822	      1.66179786	      6.10599727	     10.02880940	     -7.89835404	      5.24479298	     42.87361252	     90.41933518	      9.76391446	     -1.53108888	     16.30040008	     34.44471872	     88.97857502
      3.81666670	      0.06737175	      0.15213778	      4.48790670	      0.75939162	      0.90931679	     -0.04119197	      8.38922405	      3.05913377	     -1.72878565	      8.44191975	      0.14733929	     12.57724108	     -3.82559748	     -7.49999987	     11.61097903	      0.83053735	     -7.09072421	     51.68776034	      0.90212160	     15.12826632	    -14.14043338	     -7.49999987	     -6.03939164	      2.28973368	      6.07832637	     10.17595933	     -8.07711450	      5.24239836	     42.11847614	     90.33538078	     10.03993868	     -1.27972751	     16.17874312	     33.28443577	     89.09438873
      3.83333330	      0.10791436	     -0.36649428	      4.07228546	      0.75421200	      0.90771624	     -0.03900955	      8.58518891	      3.82666872	     -1.53273023	      8.17834820	      0.14273910	     11.79038375	     -3.80533901	     -7.49999987	     10.68863118	      0.74052996	     -7.36471223	     51.93612406	      0.90645637	     13.21934546	    -11.89062007	     -7.49999987	     -5.95197990	      2.81868944	      6.10551300	     10.05903410	     -7.97669539	      5.31980765	     41.42692778	     89.93417558	     10.02171891	     -1.09320271	     15.79545958	     32.27416858	     88.92873376
      3.85000000	      0.24844600	     -0.88996259	      3.66005603	      0.75418913	      0.90787410	     -0.03953874	      8.61688526	      4.51434011	     -1.23146520	      8.03596373	      0.14025403	     11.11403227	     -3.72608796	     -7.49999987	      9.53334337	      0.59171954	     -7.68455363	     51.61654003	      0.90087857	      9.95611963	     -9.49097678	     -7.49999987	     -5.59710546	      3.37541097	      5.83620837	      9.76141229	     -7.76033148	      5.28246452	     40.28062530	     89.46658489	      9.83320673	     -0.94922868	     15.29492302	     31.27460194	     88.71637547
      3.86666670	      0.18870777	     -1.55523056	      3.08422141	      0.74886900	      0.90641651	     -0.03692151	      9.08473926	      5.37706413	     -0.79745745	      8.26562314	      0.14426234	     10.46172331	     -4.07660539	     -7.49999987	      8.93423589	      0.30522154	     -7.88445054	     50.75647070	      0.88586753	      5.97830083	     -7.42261702	     -7.49999987	     -5.15645708	      4.07650500	      5.46117706	      9.51501013	     -7.40008563	      5.25894344	     38.89444177	     89.30249513	      9.67244375	     -0.88229027	     14.65671400	     30.41831637	     88.76459945
